<svg xmlns="http://www.w3.org/2000/svg" width="170.137" height="135.595" viewBox="0 0 170.137 135.595"><path d="M100.962-74.654c0-6.69-4.723-10.384-13.018-10.384H72.687v21.555H85.553C95.482-63.514,100.962-67.51,100.962-74.654Zm55.552-3.875c-2.876-9.354-3.3-20.828-2.967-29.7.333-9.233-6.872-17.71-16.56-17.71H37.448c-9.718,0-16.893,8.507-16.56,17.71.3,8.87-.091,20.344-2.967,29.7-2.906,9.385-7.78,15.318-15.8,16.075v8.628c7.992.757,12.9,6.69,15.8,16.075,2.876,9.354,3.3,20.828,2.967,29.7-.333,9.233,6.872,17.71,16.56,17.71h99.509c9.718,0,16.893-8.507,16.56-17.71-.3-8.87.091-20.344,2.967-29.7,2.906-9.385,7.78-15.318,15.772-16.075v-8.628C164.294-63.211,159.39-69.145,156.514-78.529ZM90.881-22.069H61.243V-94.211H90.729c13.108,0,21.706,7.084,21.706,17.982A16.071,16.071,0,0,1,99.267-60.547v.394c10.051,1.09,16.8,8.053,16.8,17.649C116.068-29.759,106.593-22.069,90.881-22.069ZM87.854-54.977H72.687v23.734H88.52c10.354,0,15.833-4.147,15.833-11.958C104.353-50.98,98.722-54.977,87.854-54.977Z" transform="translate(-2.119 125.938)" fill="#fff"/></svg>