<svg xmlns="http://www.w3.org/2000/svg" width="362.8" height="411.454" viewBox="0 0 362.8 411.454"><g transform="translate(-7573.8 -1194.766)"><path d="M181.623,482.22,33.462,441.089.445,70.766h362.8L330.193,441.031,181.623,482.22Z" transform="translate(7573.354 1124)" fill="#264de4"/><path d="M248.052,408.467,276.3,92.057H128V441.749l120.052-33.282Z" transform="translate(7627.199 1132.988)" fill="#2965f1"/><path d="M53.669,188.636l4.071,45.419H159.378V188.636Z" transform="translate(7595.822 1173.757)" fill="#ebebeb"/><path d="M47.917,124l4.129,45.419h109.76V124Z" transform="translate(7593.394 1146.47)" fill="#ebebeb"/><path d="M157.567,286.371l-.2.053-50.583-13.658-3.233-36.223H57.958l6.363,71.314,93.037,25.827.209-.058V286.371Z" transform="translate(7597.632 1193.979)" fill="#ebebeb"/><path d="M233.465,215.923l8.2-91.928H127.89v45.419h64l-4.133,46.509H127.89v45.419h55.928l-5.273,58.9L127.89,333.919V381.17l93.11-25.8.684-7.674,10.673-119.573,1.108-12.2Z" transform="translate(7627.153 1146.47)" fill="#fff"/></g></svg>