<svg xmlns="http://www.w3.org/2000/svg" width="362.8" height="411.4" viewBox="0 0 362.8 411.4"><g transform="translate(-7211 -1192.6)"><path d="M107.6,471l-33-370.4H437.4l-33,370.2L255.7,512" transform="translate(7136.4 1092)" fill="#e44d26"/><path d="M256,480.5V131H404.3L376,447" transform="translate(7136.4 1092)" fill="#f16529"/><path d="M142,176.3H256v45.4H191.8l4.2,46.5h60v45.3H154.4m2,22.8H202l3.2,36.3L256,386.2v47.4l-93.2-26" transform="translate(7136.4 1092)" fill="#ebebeb"/><path d="M369.6,176.3H255.8v45.4H365.4m-4.1,46.5H255.8v45.4h56l-5.3,59-50.7,13.6v47.2l93-25.8" transform="translate(7136.4 1092)" fill="#fff"/></g></svg>