<svg xmlns="http://www.w3.org/2000/svg" width="135.625" height="135.625" viewBox="0 0 135.625 135.625"><path d="M0-125.937V9.688H135.625V-125.937ZM73.807-20.162c0,13.2-7.75,19.224-19.042,19.224-10.2,0-16.105-5.268-19.133-11.655L46.016-18.86c2,3.542,3.814,6.539,8.2,6.539,4.178,0,6.842-1.635,6.842-8.022V-63.665H73.807v43.5ZM103.959-.938c-11.837,0-19.5-5.631-23.22-13.018L91.123-19.95c2.725,4.45,6.3,7.75,12.563,7.75,5.268,0,8.658-2.634,8.658-6.3,0-4.359-3.451-5.9-9.294-8.477l-3.179-1.362c-9.2-3.905-15.288-8.84-15.288-19.224,0-9.566,7.3-16.832,18.648-16.832,8.113,0,13.926,2.815,18.1,10.2l-9.93,6.357c-2.18-3.905-4.541-5.449-8.2-5.449-3.724,0-6.085,2.361-6.085,5.449,0,3.814,2.361,5.358,7.841,7.75l3.179,1.362c10.838,4.632,16.923,9.385,16.923,20.041,0,11.443-9.021,17.74-21.1,17.74Z" transform="translate(0 125.938)"/></svg>