<svg xmlns="http://www.w3.org/2000/svg" xmlns:xlink="http://www.w3.org/1999/xlink" width="233.965" height="143.292" viewBox="0 0 233.965 143.292"><defs><clipPath id="a"><path d="M217.983,226.285,195.7,239.146a2.689,2.689,0,0,0-1.347,2.33v25.74a2.689,2.689,0,0,0,1.347,2.33l22.284,12.871a2.7,2.7,0,0,0,2.692,0l22.28-12.871a2.7,2.7,0,0,0,1.343-2.33v-25.74a2.689,2.689,0,0,0-1.349-2.33l-22.277-12.861a2.71,2.71,0,0,0-2.7,0" transform="translate(-194.354 -225.925)"/></clipPath><linearGradient id="b" x1="-0.847" y1="-1.034" x2="-0.838" y2="-1.034" gradientUnits="objectBoundingBox"><stop offset="0.3" stop-color="#3e863d"/><stop offset="0.5" stop-color="#55934f"/><stop offset="0.8" stop-color="#5aad45"/></linearGradient><clipPath id="c"><path d="M195.4,268.918a2.7,2.7,0,0,0,.793.7l19.114,11.041,3.184,1.83a2.7,2.7,0,0,0,1.552.352,2.754,2.754,0,0,0,.529-.1l23.5-43.03a2.665,2.665,0,0,0-.626-.5l-14.59-8.425-7.712-4.437a2.811,2.811,0,0,0-.7-.28Zm0,0" transform="translate(-195.398 -226.069)"/></clipPath><linearGradient id="d" x1="-0.742" y1="-0.932" x2="-0.737" y2="-0.932" gradientUnits="objectBoundingBox"><stop offset="0.57" stop-color="#3e863d"/><stop offset="0.72" stop-color="#619857"/><stop offset="1" stop-color="#76ac64"/></linearGradient><clipPath id="e"><path d="M220.316,225.944a2.718,2.718,0,0,0-1.076.345l-22.219,12.824,23.959,43.639a2.672,2.672,0,0,0,.957-.33l22.282-12.871a2.7,2.7,0,0,0,1.3-1.838L221.1,225.988a2.8,2.8,0,0,0-.545-.054c-.074,0-.148,0-.222.011" transform="translate(-197.021 -225.934)"/></clipPath><linearGradient id="f" x1="-2.148" y1="-2.103" x2="-2.138" y2="-2.103" gradientUnits="objectBoundingBox"><stop offset="0.16" stop-color="#6bbf47"/><stop offset="0.38" stop-color="#79b461"/><stop offset="0.47" stop-color="#75ac64"/><stop offset="0.7" stop-color="#659e5a"/><stop offset="0.9" stop-color="#3e863d"/></linearGradient></defs><g transform="translate(0 0)"><path d="M195.857,219.568a4.447,4.447,0,0,1-2.216-.592l-7.054-4.176c-1.054-.589-.539-.8-.192-.918a14.241,14.241,0,0,0,3.189-1.454.535.535,0,0,1,.525.037l5.419,3.216a.715.715,0,0,0,.655,0l21.129-12.2a.666.666,0,0,0,.323-.571V178.531a.678.678,0,0,0-.327-.582l-21.121-12.186a.65.65,0,0,0-.651,0l-21.116,12.186a.673.673,0,0,0-.335.576v24.382a.651.651,0,0,0,.328.566l5.786,3.343c3.142,1.571,5.061-.28,5.061-2.142V180.609a.6.6,0,0,1,.614-.608h2.676a.6.6,0,0,1,.608.608v24.075c0,4.189-2.285,6.6-6.257,6.6-1.222,0-2.184,0-4.871-1.322l-5.543-3.194a4.468,4.468,0,0,1-2.216-3.856V178.526a4.44,4.44,0,0,1,2.216-3.85l21.15-12.2a4.633,4.633,0,0,1,4.443,0l21.124,12.207a4.457,4.457,0,0,1,2.216,3.85v24.382a4.47,4.47,0,0,1-2.216,3.85l-21.124,12.2a4.441,4.441,0,0,1-2.227.592" transform="translate(-80.217 -76.276)" fill="#3d3d3d"/><path d="M221.025,212.78c-9.245,0-11.183-4.244-11.183-7.8a.608.608,0,0,1,.612-.608h2.729a.611.611,0,0,1,.6.517c.413,2.781,1.64,4.184,7.23,4.184,4.453,0,6.347-1.006,6.347-3.367,0-1.359-.539-2.369-7.457-3.046-5.786-.571-9.361-1.846-9.361-6.474,0-4.263,3.6-6.8,9.62-6.8,6.764,0,10.118,2.348,10.541,7.394a.616.616,0,0,1-.614.666h-2.745a.606.606,0,0,1-.592-.476c-.661-2.925-2.258-3.861-6.6-3.861-4.86,0-5.426,1.692-5.426,2.962,0,1.539.666,1.989,7.225,2.856,6.495.862,9.578,2.079,9.578,6.643,0,4.6-3.84,7.24-10.535,7.24m25.736-25.857h.709a.616.616,0,0,0,.693-.645c0-.624-.428-.624-.666-.624h-.73Zm-.862-2h1.571c.539,0,1.6,0,1.6,1.206a1.05,1.05,0,0,1-.862,1.121c.629.042.672.455.756,1.037a4.46,4.46,0,0,0,.238,1.206H248.2c-.026-.212-.175-1.375-.175-1.439-.063-.259-.153-.386-.476-.386h-.8v1.83h-.883Zm-1.888,2.274a2.407,2.407,0,1,0-.005-.005m7.489.016a4.07,4.07,0,1,0-.005,0" transform="translate(-98.859 -86.289)" fill="#3d3d3d"/><path d="M50.211,47.891a2.705,2.705,0,0,0-1.353-2.351l-22.4-12.889a2.616,2.616,0,0,0-1.231-.354h-.232a2.662,2.662,0,0,0-1.238.354L1.355,45.54A2.726,2.726,0,0,0,0,47.894L.049,82.61a1.333,1.333,0,0,0,.672,1.169,1.28,1.28,0,0,0,1.343,0l13.317-7.627A2.731,2.731,0,0,0,16.736,73.8V57.586a2.7,2.7,0,0,1,1.351-2.343l5.67-3.265a2.69,2.69,0,0,1,1.354-.364,2.642,2.642,0,0,1,1.345.363l5.667,3.264a2.7,2.7,0,0,1,1.354,2.343V73.8a2.74,2.74,0,0,0,1.357,2.348l13.309,7.621a1.322,1.322,0,0,0,1.354,0,1.358,1.358,0,0,0,.671-1.169ZM155.919,65.966a.672.672,0,0,1-.338.585l-7.694,4.435a.678.678,0,0,1-.675,0l-7.7-4.435a.67.67,0,0,1-.338-.585V57.083a.681.681,0,0,1,.333-.587l7.69-4.443a.683.683,0,0,1,.682,0l7.7,4.443a.674.674,0,0,1,.338.587ZM158,.171a1.353,1.353,0,0,0-2.013,1.183V35.732a.946.946,0,0,1-1.42.82l-5.612-3.232a2.7,2.7,0,0,0-2.7,0L123.84,46.253a2.7,2.7,0,0,0-1.354,2.338V74.464a2.709,2.709,0,0,0,1.354,2.343l22.409,12.942a2.717,2.717,0,0,0,2.706,0L171.365,76.8a2.712,2.712,0,0,0,1.354-2.343V9.977a2.712,2.712,0,0,0-1.391-2.364ZM232.62,56.849a2.706,2.706,0,0,0,1.345-2.339V48.24a2.707,2.707,0,0,0-1.347-2.34L210.351,32.974a2.7,2.7,0,0,0-2.713,0l-22.4,12.931a2.7,2.7,0,0,0-1.354,2.343V74.111a2.715,2.715,0,0,0,1.365,2.354l22.261,12.688a2.7,2.7,0,0,0,2.655.016l13.466-7.484a1.351,1.351,0,0,0,.011-2.354L201.1,66.394a1.343,1.343,0,0,1-.682-1.169V57.112a1.343,1.343,0,0,1,.677-1.172l7.013-4.046a1.337,1.337,0,0,1,1.349,0l7.018,4.046a1.348,1.348,0,0,1,.677,1.169v6.378a1.349,1.349,0,0,0,2.031,1.169Zm0,0" transform="translate(0 0)" fill="#fff" fill-rule="evenodd"/><path d="M390.475,105.137a.513.513,0,0,1,.518,0l4.3,2.48a.519.519,0,0,1,.259.45v4.966a.519.519,0,0,1-.259.45l-4.3,2.48a.513.513,0,0,1-.518,0l-4.3-2.48a.518.518,0,0,1-.264-.45v-4.966a.513.513,0,0,1,.259-.45Zm0,0" transform="translate(-181.808 -49.498)" fill="#3d3d3d" fill-rule="evenodd"/><g transform="translate(61.377 32.743)" clip-path="url(#a)"><path d="M246.759,219.379,183.971,188.6l-32.193,65.674,62.785,30.778Zm0,0" transform="translate(-174.296 -208.342)" fill="url(#b)"/></g><g transform="translate(61.929 32.819)" clip-path="url(#c)"><path d="M144.07,225.419l44.334,60L247.037,242.1l-44.337-60Zm0,0" transform="translate(-171.217 -205.355)" fill="url(#d)"/></g><g transform="translate(62.787 32.748)" clip-path="url(#e)"><path d="M197.02,225.934v56.819h48.49V225.934Zm0,0" transform="translate(-197.021 -225.934)" fill="url(#f)"/></g></g></svg>