<svg xmlns="http://www.w3.org/2000/svg" xmlns:xlink="http://www.w3.org/1999/xlink" width="278.154" height="316.616" viewBox="0 0 278.154 316.616"><defs><clipPath id="a"><path d="M325.945,227.927,201.853,299.552a14.978,14.978,0,0,0-7.5,12.978V455.879a14.974,14.974,0,0,0,7.5,12.978l124.1,71.681a15.022,15.022,0,0,0,14.992,0l124.08-71.68a15.01,15.01,0,0,0,7.482-12.978V312.53A14.976,14.976,0,0,0,465,299.552L340.935,227.927a15.09,15.09,0,0,0-15.022,0" transform="translate(-194.354 -225.925)"/></clipPath><linearGradient id="b" x1="-0.847" y1="-1.034" x2="-0.838" y2="-1.034" gradientUnits="objectBoundingBox"><stop offset="0.3" stop-color="#3e863d"/><stop offset="0.5" stop-color="#55934f"/><stop offset="0.8" stop-color="#5aad45"/></linearGradient><clipPath id="c"><path d="M195.4,464.7a15.019,15.019,0,0,0,4.418,3.876l106.449,61.486L324,540.255a15.044,15.044,0,0,0,8.642,1.959,15.355,15.355,0,0,0,2.945-.539L466.462,302.032a14.847,14.847,0,0,0-3.487-2.769l-81.253-46.921L338.771,227.63a15.656,15.656,0,0,0-3.888-1.561Zm0,0" transform="translate(-195.398 -226.069)"/></clipPath><linearGradient id="d" x1="-0.742" y1="-0.932" x2="-0.737" y2="-0.932" gradientUnits="objectBoundingBox"><stop offset="0.57" stop-color="#3e863d"/><stop offset="0.72" stop-color="#619857"/><stop offset="1" stop-color="#76ac64"/></linearGradient><clipPath id="e"><path d="M326.754,225.99a15.136,15.136,0,0,0-5.994,1.92L197.021,299.329,330.45,542.358a14.886,14.886,0,0,0,5.331-1.838L459.873,468.84a15.036,15.036,0,0,0,7.246-10.239L331.1,226.234a15.583,15.583,0,0,0-3.034-.3c-.413,0-.825.021-1.237.059" transform="translate(-197.021 -225.934)"/></clipPath><linearGradient id="f" x1="-2.148" y1="-2.103" x2="-2.138" y2="-2.103" gradientUnits="objectBoundingBox"><stop offset="0.16" stop-color="#6bbf47"/><stop offset="0.38" stop-color="#79b461"/><stop offset="0.47" stop-color="#75ac64"/><stop offset="0.7" stop-color="#659e5a"/><stop offset="0.9" stop-color="#3e863d"/></linearGradient></defs><g transform="translate(-121.234 -64.676)"><g transform="translate(121.234 64.676)" clip-path="url(#a)"><path d="M680.738,360,331.068,188.6,151.778,554.352l349.661,171.4Zm0,0" transform="translate(-277.184 -298.534)" fill="url(#b)"/></g><g transform="translate(124.309 65.099)" clip-path="url(#c)"><path d="M144.07,423.343l246.9,334.171L717.506,516.263,470.589,182.1Zm0,0" transform="translate(-295.254 -311.607)" fill="url(#d)"/></g><g transform="translate(129.09 64.702)" clip-path="url(#e)"><path d="M197.02,225.934v316.43H467.068V225.934Zm0,0" transform="translate(-197.023 -225.934)" fill="url(#f)"/></g></g></svg>