<svg xmlns="http://www.w3.org/2000/svg" width="152.012" height="131.744" viewBox="0 0 152.012 131.744"><g transform="translate(0 -32)"><path d="M-6248.856-1691.514a7.6,7.6,0,0,1-7.6-7.6v-22.8h-30.4v15.2h7.6a12.684,12.684,0,0,1,12.667,12.669,2.534,2.534,0,0,1-2.533,2.533H-6365.4a7.6,7.6,0,0,1-7.6-7.6v-65.87a7.6,7.6,0,0,1,7.6-7.6h2.534v-38a12.683,12.683,0,0,1,12.667-12.667h106.409a12.681,12.681,0,0,1,12.667,12.667v53.2h2.534a7.6,7.6,0,0,1,7.6,7.6v50.669a7.6,7.6,0,0,1-7.6,7.6Zm-2.535-7.6a2.536,2.536,0,0,0,2.535,2.535h20.268a2.534,2.534,0,0,0,2.533-2.535v-2.533h-25.336Zm-60.8,0a7.572,7.572,0,0,1-.466,2.535h40.569a7.62,7.62,0,0,0-7.168-5.068h-32.935Zm-55.738,0a2.535,2.535,0,0,0,2.534,2.535h45.6a2.536,2.536,0,0,0,2.534-2.535v-2.533h-50.671Zm116.542-50.669v43.069h25.336v-43.069a2.533,2.533,0,0,0-2.533-2.533h-20.268A2.534,2.534,0,0,0-6251.392-1749.786Zm-50.669,43.069h10.134v-15.2h-10.134Zm-10.134,0h5.067v-15.2h-5.067Zm-55.738-58.27v58.27h50.671v-58.27a2.534,2.534,0,0,0-2.534-2.533h-45.6A2.533,2.533,0,0,0-6367.933-1764.986Zm55.738,38h55.736v-15.2h-55.736Zm24.277-70.2a2.536,2.536,0,0,1,.063,3.584l-25.082,25.082c-.035.037-.086.046-.125.082a7.525,7.525,0,0,1,.867,3.45v17.734h55.736v-2.533a7.6,7.6,0,0,1,7.6-7.6h12.667v-53.2a7.6,7.6,0,0,0-7.6-7.6H-6350.2a7.6,7.6,0,0,0-7.6,7.6v38h38a7.489,7.489,0,0,1,3.137.7c.053-.066.078-.147.139-.211l25.082-25.082a2.53,2.53,0,0,1,1.76-.71A2.53,2.53,0,0,1-6287.917-1797.184Zm43.758,73.04a2.534,2.534,0,0,1,.063-3.583l7.165-7.165a2.537,2.537,0,0,1,3.521,0,2.536,2.536,0,0,1,.063,3.583l-7.166,7.165-.062.062a2.523,2.523,0,0,1-1.759.712A2.527,2.527,0,0,1-6244.159-1724.144Zm-97.759-3.276a2.535,2.535,0,0,1,.063-3.584l10.748-10.746a2.536,2.536,0,0,1,3.52,0,2.535,2.535,0,0,1,.063,3.583l-10.748,10.748c-.021.021-.042.04-.061.061a2.531,2.531,0,0,1-1.761.712A2.532,2.532,0,0,1-6341.918-1727.419Zm-15.2,0a2.534,2.534,0,0,1,.062-3.583l10.749-10.748a2.533,2.533,0,0,1,3.581,0c-.456,1.31.453,2.8,0,3.583l-10.747,10.748-.062.062a2.522,2.522,0,0,1-1.759.71A2.531,2.531,0,0,1-6357.119-1727.419Zm60.162-4.632a2.533,2.533,0,0,1-2.532-2.521,2.533,2.533,0,0,1,2.521-2.546h.024a2.533,2.533,0,0,1,2.535,2.533,2.533,2.533,0,0,1-2.535,2.533Zm-4.171-36.465a2.535,2.535,0,0,1,.062-3.583l25.082-25.082a2.539,2.539,0,0,1,3.522,0,2.534,2.534,0,0,1,.061,3.583l-25.082,25.082c-.02.021-.042.042-.061.062a2.53,2.53,0,0,1-1.761.712A2.529,2.529,0,0,1-6301.128-1768.516Zm-.933-39.541a2.533,2.533,0,0,1-2.534-2.533,2.533,2.533,0,0,1,2.534-2.533h10.134a2.533,2.533,0,0,1,2.534,2.533,2.533,2.533,0,0,1-2.534,2.533Z" transform="translate(6373 1855.258)" fill="#fff"/></g></svg>