<svg id="view-project" xmlns="http://www.w3.org/2000/svg" width="25.783" height="25.783" viewBox="0 0 25.783 25.783">
  <path id="Path_13" data-name="Path 13" d="M201.418,0h-9.376a1.172,1.172,0,1,0,0,2.344h6.546L186.526,14.407a1.172,1.172,0,1,0,1.657,1.657L200.246,4v6.546a1.172,1.172,0,0,0,2.344,0V1.172A1.172,1.172,0,0,0,201.418,0Z" transform="translate(-176.807)" fill="#0b0087"/>
  <path id="Path_14" data-name="Path 14" d="M19.924,100.123a1.172,1.172,0,0,0-1.172,1.172v10.548H2.344V95.435H12.892a1.172,1.172,0,1,0,0-2.344H1.172A1.172,1.172,0,0,0,0,94.263v18.752a1.172,1.172,0,0,0,1.172,1.172H19.924a1.172,1.172,0,0,0,1.172-1.172v-11.72A1.172,1.172,0,0,0,19.924,100.123Z" transform="translate(0 -88.403)" fill="#0b0087"/>
</svg>
